<svg width="272" height="272" fill="none" xmlns="http://www.w3.org/2000/svg"><ellipse cx="135.8" cy="135.9" rx="129.8" ry="130.1" transform="rotate(-.1 135.8 135.9)" fill="#fff"/><path d="M272 136a136 136 0 1 1-272 0 136 136 0 0 1 272 0Zm-261.8 0a125.8 125.8 0 1 0 251.6 0 125.8 125.8 0 0 0-251.6 0Z" fill="#333"/><path d="M122.8 33.1a26.4 26.4 0 0 1 26.4 0l69.6 40.2A26.4 26.4 0 0 1 232 96v80.4c0 9.4-5 18.1-13.2 22.8l-69.6 40.2a26.4 26.4 0 0 1-26.4 0l-69.6-40.2A26.4 26.4 0 0 1 40 176.5V96.1c0-9.4 5-18.1 13.2-22.8L122.8 33Z" fill="#333"/><path d="M123 44a26.4 26.4 0 0 1 26.4 0l60.2 34.7a26.4 26.4 0 0 1 13.2 22.9V171c0 9.4-5 18-13.2 22.8l-60.2 34.7a26.4 26.4 0 0 1-26.4 0L62.8 194a26.4 26.4 0 0 1-13.2-22.8v-69.5c0-9.5 5-18.2 13.2-22.9L123 44Z" fill="#333"/><path d="m218.2 172.3-20.4-44.1a9.5 9.5 0 0 0-17-.4l-34.6 65.9c-1.2 2.3-1 5.2.7 7.2a4.9 4.9 0 0 0 5 1.7l61.1-15.8c3-.8 5.3-3 6-6 .7-2.9.4-5.9-.8-8.5ZM201.6 109l14.3-10.7c3.6-2.7 8.6-1.7 9.6 2.7l.4 2.5a2619.2 2619.2 0 0 1-1.1 69c-.5 3.7-4.4 3.8-5.9.4l-21.2-49.2a12.5 12.5 0 0 1 0-9.7 12 12 0 0 1 3.9-5Z" fill="#EE6A38" stroke="#333" stroke-width="3.4"/><path d="m214.7 83.7-64.6-42.5-1-.5c-3.1-.7-5.6 2.6-4 5.3 12.2 19.6 35 55.5 38.2 59.9a9 9 0 0 0 5.6 3.2c7.8 1.7 15.7-2 22-6.9 4.6-3.5 8.7-7.3 9-10 .4-4.5-3.3-7.6-5.2-8.5Z" fill="#EE6A38" stroke="#333" stroke-width="3.4"/><path d="M130.2 46.8c3-4.8 10-4.8 13 0l36.5 59a5.5 5.5 0 0 1-4.7 8.4H98.3a5.5 5.5 0 0 1-4.6-8.3l36.5-59.1ZM142.5 187a7 7 0 0 1-12.3 0l-32.6-60.4a5 5 0 0 1 4.4-7.3h68.7a5 5 0 0 1 4.4 7.3L142.5 187Z" fill="#EE6A38"/><path d="m54.8 171.2 20.4-44a9.5 9.5 0 0 1 17-.5l34.6 65.9c1.3 2.3 1 5.2-.7 7.2a4.9 4.9 0 0 1-5 1.7l-61-15.8c-3-.7-5.3-3-6-6-.8-2.9-.5-5.9.7-8.5Z" fill="#EE6A38" stroke="#333" stroke-width="3.4"/><path d="M71.5 109 57.2 98.3c-3.7-2.7-8.6-1.7-9.6 2.7l-.5 2.5a2620.7 2620.7 0 0 0 1.2 69c.5 3.7 4.3 3.8 5.8.4l21.2-49.2c1.3-3 1.4-6.6 0-9.7a12 12 0 0 0-3.8-5Z" fill="#EE6A38" stroke="#333" stroke-width="3.4"/><path d="M58.3 83.7 123 41.2l1-.5c3-.7 5.5 2.6 3.8 5.3-12 19.6-34.9 55.5-38 59.9A9 9 0 0 1 84 109c-7.8 1.7-15.6-2-22-6.9-4.6-3.5-8.7-7.3-9-10-.4-4.5 3.3-7.6 5.2-8.5Z" fill="#EE6A38" stroke="#333" stroke-width="3.4"/><path d="M128 227.5c-6.9-1-47.2-23.4-70.1-37.6-1-.7-.3-2.3.9-2 25.5 7.4 56.3 14.2 62.7 16.4l1.7.6a15.4 15.4 0 0 1 10.9 14.3c.1 4.8-1 9.2-6.2 8.3ZM146.8 227.5c6.8-1 47.1-23.4 70-37.6 1-.7.3-2.3-.9-2-25.5 7.4-56.2 14.2-62.7 16.4l-1.7.6a15.4 15.4 0 0 0-10.8 14.3c-.2 4.8 1 9.2 6.1 8.3Z" fill="#EE6A38"/></svg>
